<mxfile host="app.diagrams.net" modified="2020-12-10T05:12:03.684Z" agent="5.0 (Macintosh)" etag="Zm97bpaBDVkWVu6mdV2P" version="13.10.9" type="github">
  <diagram id="aL3talQM1wkMyGaneaRw" name="Page-1">
    <mxGraphModel dx="946" dy="623" grid="1" gridSize="10" guides="1" tooltips="1" connect="1" arrows="1" fold="1" page="1" pageScale="1" pageWidth="827" pageHeight="1169" math="0" shadow="0">
      <root>
        <mxCell id="0" />
        <mxCell id="1" parent="0" />
        <mxCell id="l713QnwxlMrZgbp7ZlIu-4" value="" style="edgeStyle=orthogonalEdgeStyle;rounded=0;orthogonalLoop=1;jettySize=auto;html=1;" parent="1" source="l713QnwxlMrZgbp7ZlIu-1" target="l713QnwxlMrZgbp7ZlIu-3" edge="1">
          <mxGeometry relative="1" as="geometry" />
        </mxCell>
        <mxCell id="l713QnwxlMrZgbp7ZlIu-42" style="edgeStyle=orthogonalEdgeStyle;rounded=0;orthogonalLoop=1;jettySize=auto;html=1;exitX=0.25;exitY=0;exitDx=0;exitDy=0;entryX=0.375;entryY=0.017;entryDx=0;entryDy=0;entryPerimeter=0;strokeColor=#FF0000;strokeWidth=2;" parent="1" source="l713QnwxlMrZgbp7ZlIu-1" target="l713QnwxlMrZgbp7ZlIu-5" edge="1">
          <mxGeometry relative="1" as="geometry">
            <Array as="points">
              <mxPoint x="160" y="290" />
              <mxPoint x="775" y="290" />
            </Array>
          </mxGeometry>
        </mxCell>
        <mxCell id="l713QnwxlMrZgbp7ZlIu-1" value="健康云" style="rounded=1;whiteSpace=wrap;html=1;gradientColor=#7ea6e0;fillColor=#dae8fc;strokeColor=#6c8ebf;" parent="1" vertex="1">
          <mxGeometry x="130" y="340" width="120" height="60" as="geometry" />
        </mxCell>
        <mxCell id="l713QnwxlMrZgbp7ZlIu-8" style="edgeStyle=orthogonalEdgeStyle;rounded=0;orthogonalLoop=1;jettySize=auto;html=1;exitX=0.5;exitY=1;exitDx=0;exitDy=0;" parent="1" source="l713QnwxlMrZgbp7ZlIu-2" target="l713QnwxlMrZgbp7ZlIu-3" edge="1">
          <mxGeometry relative="1" as="geometry">
            <mxPoint x="340" y="410" as="targetPoint" />
            <Array as="points">
              <mxPoint x="130" y="570" />
              <mxPoint x="340" y="570" />
            </Array>
          </mxGeometry>
        </mxCell>
        <mxCell id="l713QnwxlMrZgbp7ZlIu-23" style="edgeStyle=orthogonalEdgeStyle;rounded=0;orthogonalLoop=1;jettySize=auto;html=1;exitX=0.5;exitY=0;exitDx=0;exitDy=0;entryX=0.5;entryY=0;entryDx=0;entryDy=0;" parent="1" source="l713QnwxlMrZgbp7ZlIu-2" target="l713QnwxlMrZgbp7ZlIu-1" edge="1">
          <mxGeometry relative="1" as="geometry">
            <Array as="points">
              <mxPoint x="130" y="445" />
              <mxPoint x="110" y="445" />
              <mxPoint x="110" y="320" />
              <mxPoint x="190" y="320" />
            </Array>
          </mxGeometry>
        </mxCell>
        <mxCell id="l713QnwxlMrZgbp7ZlIu-2" value="客户" style="rounded=1;whiteSpace=wrap;html=1;gradientColor=#ffa500;fillColor=#ffcd28;strokeColor=#d79b00;" parent="1" vertex="1">
          <mxGeometry x="70" y="490" width="120" height="60" as="geometry" />
        </mxCell>
        <mxCell id="l713QnwxlMrZgbp7ZlIu-10" value="" style="edgeStyle=orthogonalEdgeStyle;rounded=0;orthogonalLoop=1;jettySize=auto;html=1;exitX=0.5;exitY=1;exitDx=0;exitDy=0;" parent="1" source="l713QnwxlMrZgbp7ZlIu-24" target="l713QnwxlMrZgbp7ZlIu-9" edge="1">
          <mxGeometry relative="1" as="geometry" />
        </mxCell>
        <mxCell id="l713QnwxlMrZgbp7ZlIu-25" value="" style="edgeStyle=orthogonalEdgeStyle;rounded=0;orthogonalLoop=1;jettySize=auto;html=1;" parent="1" source="l713QnwxlMrZgbp7ZlIu-3" target="l713QnwxlMrZgbp7ZlIu-24" edge="1">
          <mxGeometry relative="1" as="geometry" />
        </mxCell>
        <mxCell id="l713QnwxlMrZgbp7ZlIu-3" value="采样员1" style="whiteSpace=wrap;html=1;rounded=1;gradientColor=#ea6b66;fillColor=#f8cecc;strokeColor=#b85450;" parent="1" vertex="1">
          <mxGeometry x="330" y="340" width="120" height="60" as="geometry" />
        </mxCell>
        <mxCell id="l713QnwxlMrZgbp7ZlIu-15" style="edgeStyle=orthogonalEdgeStyle;rounded=0;orthogonalLoop=1;jettySize=auto;html=1;exitX=0.25;exitY=1;exitDx=0;exitDy=0;entryX=0.25;entryY=0;entryDx=0;entryDy=0;" parent="1" source="l713QnwxlMrZgbp7ZlIu-5" target="l713QnwxlMrZgbp7ZlIu-11" edge="1">
          <mxGeometry relative="1" as="geometry" />
        </mxCell>
        <mxCell id="l713QnwxlMrZgbp7ZlIu-21" value="" style="edgeStyle=orthogonalEdgeStyle;rounded=0;orthogonalLoop=1;jettySize=auto;html=1;strokeColor=#FF0000;strokeWidth=4;" parent="1" source="l713QnwxlMrZgbp7ZlIu-5" target="l713QnwxlMrZgbp7ZlIu-20" edge="1">
          <mxGeometry relative="1" as="geometry" />
        </mxCell>
        <mxCell id="l713QnwxlMrZgbp7ZlIu-5" value="手机小程序" style="whiteSpace=wrap;html=1;rounded=1;" parent="1" vertex="1">
          <mxGeometry x="730" y="350" width="120" height="60" as="geometry" />
        </mxCell>
        <mxCell id="l713QnwxlMrZgbp7ZlIu-12" value="" style="edgeStyle=orthogonalEdgeStyle;rounded=0;orthogonalLoop=1;jettySize=auto;html=1;" parent="1" source="l713QnwxlMrZgbp7ZlIu-9" target="l713QnwxlMrZgbp7ZlIu-11" edge="1">
          <mxGeometry relative="1" as="geometry" />
        </mxCell>
        <mxCell id="l713QnwxlMrZgbp7ZlIu-9" value="实验室样本组" style="whiteSpace=wrap;html=1;rounded=1;" parent="1" vertex="1">
          <mxGeometry x="440" y="540" width="120" height="60" as="geometry" />
        </mxCell>
        <mxCell id="l713QnwxlMrZgbp7ZlIu-14" value="" style="edgeStyle=orthogonalEdgeStyle;rounded=0;orthogonalLoop=1;jettySize=auto;html=1;" parent="1" source="l713QnwxlMrZgbp7ZlIu-11" target="l713QnwxlMrZgbp7ZlIu-13" edge="1">
          <mxGeometry relative="1" as="geometry" />
        </mxCell>
        <mxCell id="l713QnwxlMrZgbp7ZlIu-16" style="edgeStyle=orthogonalEdgeStyle;rounded=0;orthogonalLoop=1;jettySize=auto;html=1;exitX=0.75;exitY=0;exitDx=0;exitDy=0;entryX=0.75;entryY=1;entryDx=0;entryDy=0;" parent="1" source="l713QnwxlMrZgbp7ZlIu-11" target="l713QnwxlMrZgbp7ZlIu-5" edge="1">
          <mxGeometry relative="1" as="geometry" />
        </mxCell>
        <mxCell id="l713QnwxlMrZgbp7ZlIu-11" value="腾成程lis" style="whiteSpace=wrap;html=1;rounded=1;" parent="1" vertex="1">
          <mxGeometry x="730" y="525" width="120" height="60" as="geometry" />
        </mxCell>
        <mxCell id="l713QnwxlMrZgbp7ZlIu-18" value="" style="edgeStyle=orthogonalEdgeStyle;rounded=0;orthogonalLoop=1;jettySize=auto;html=1;entryX=1;entryY=0.5;entryDx=0;entryDy=0;" parent="1" source="l713QnwxlMrZgbp7ZlIu-13" target="l713QnwxlMrZgbp7ZlIu-17" edge="1">
          <mxGeometry relative="1" as="geometry">
            <Array as="points">
              <mxPoint x="990" y="720" />
            </Array>
          </mxGeometry>
        </mxCell>
        <mxCell id="l713QnwxlMrZgbp7ZlIu-13" value="实验室开始试验" style="whiteSpace=wrap;html=1;rounded=1;" parent="1" vertex="1">
          <mxGeometry x="930" y="525" width="120" height="60" as="geometry" />
        </mxCell>
        <mxCell id="l713QnwxlMrZgbp7ZlIu-19" style="edgeStyle=orthogonalEdgeStyle;rounded=0;orthogonalLoop=1;jettySize=auto;html=1;exitX=0.5;exitY=0;exitDx=0;exitDy=0;" parent="1" source="l713QnwxlMrZgbp7ZlIu-17" target="l713QnwxlMrZgbp7ZlIu-11" edge="1">
          <mxGeometry relative="1" as="geometry" />
        </mxCell>
        <mxCell id="l713QnwxlMrZgbp7ZlIu-17" value="运营或试验员" style="whiteSpace=wrap;html=1;rounded=1;" parent="1" vertex="1">
          <mxGeometry x="750" y="690" width="120" height="60" as="geometry" />
        </mxCell>
        <mxCell id="l713QnwxlMrZgbp7ZlIu-20" value="政务外网" style="whiteSpace=wrap;html=1;rounded=1;fillColor=#1ba1e2;strokeColor=#006EAF;fontColor=#ffffff;" parent="1" vertex="1">
          <mxGeometry x="990" y="350" width="120" height="60" as="geometry" />
        </mxCell>
        <mxCell id="l713QnwxlMrZgbp7ZlIu-26" style="edgeStyle=orthogonalEdgeStyle;rounded=0;orthogonalLoop=1;jettySize=auto;html=1;exitX=1;exitY=0.5;exitDx=0;exitDy=0;entryX=0;entryY=0.5;entryDx=0;entryDy=0;" parent="1" source="l713QnwxlMrZgbp7ZlIu-24" target="l713QnwxlMrZgbp7ZlIu-5" edge="1">
          <mxGeometry relative="1" as="geometry" />
        </mxCell>
        <mxCell id="l713QnwxlMrZgbp7ZlIu-24" value="&lt;span&gt;采样员2（pos机）&lt;/span&gt;" style="whiteSpace=wrap;html=1;rounded=1;fillColor=#f8cecc;strokeColor=#b85450;gradientColor=#ea6b66;" parent="1" vertex="1">
          <mxGeometry x="530" y="340" width="120" height="60" as="geometry" />
        </mxCell>
        <mxCell id="l713QnwxlMrZgbp7ZlIu-27" value="试验完成" style="text;html=1;align=center;verticalAlign=middle;resizable=0;points=[];autosize=1;" parent="1" vertex="1">
          <mxGeometry x="970" y="640" width="60" height="20" as="geometry" />
        </mxCell>
        <mxCell id="l713QnwxlMrZgbp7ZlIu-28" value="提交审核结果" style="text;html=1;align=center;verticalAlign=middle;resizable=0;points=[];autosize=1;" parent="1" vertex="1">
          <mxGeometry x="765" y="620" width="90" height="20" as="geometry" />
        </mxCell>
        <mxCell id="l713QnwxlMrZgbp7ZlIu-29" value="返回实验结果" style="text;html=1;align=center;verticalAlign=middle;resizable=0;points=[];autosize=1;" parent="1" vertex="1">
          <mxGeometry x="795" y="450" width="90" height="20" as="geometry" />
        </mxCell>
        <mxCell id="l713QnwxlMrZgbp7ZlIu-30" value="客户信息" style="text;html=1;align=center;verticalAlign=middle;resizable=0;points=[];autosize=1;" parent="1" vertex="1">
          <mxGeometry x="720" y="460" width="60" height="20" as="geometry" />
        </mxCell>
        <mxCell id="l713QnwxlMrZgbp7ZlIu-31" value="收到样本扫码" style="text;html=1;align=center;verticalAlign=middle;resizable=0;points=[];autosize=1;" parent="1" vertex="1">
          <mxGeometry x="405" y="530" width="90" height="20" as="geometry" />
        </mxCell>
        <mxCell id="l713QnwxlMrZgbp7ZlIu-32" value="样本管" style="text;html=1;align=center;verticalAlign=middle;resizable=0;points=[];autosize=1;" parent="1" vertex="1">
          <mxGeometry x="285" y="430" width="50" height="20" as="geometry" />
        </mxCell>
        <mxCell id="l713QnwxlMrZgbp7ZlIu-34" style="edgeStyle=orthogonalEdgeStyle;rounded=0;orthogonalLoop=1;jettySize=auto;html=1;exitX=0.75;exitY=0;exitDx=0;exitDy=0;entryX=0.5;entryY=0;entryDx=0;entryDy=0;" parent="1" source="l713QnwxlMrZgbp7ZlIu-5" target="l713QnwxlMrZgbp7ZlIu-5" edge="1">
          <mxGeometry relative="1" as="geometry">
            <Array as="points">
              <mxPoint x="820" y="290" />
              <mxPoint x="870" y="290" />
              <mxPoint x="870" y="230" />
              <mxPoint x="790" y="230" />
            </Array>
          </mxGeometry>
        </mxCell>
        <mxCell id="l713QnwxlMrZgbp7ZlIu-35" value="生成报告" style="text;html=1;align=center;verticalAlign=middle;resizable=0;points=[];autosize=1;" parent="1" vertex="1">
          <mxGeometry x="795" y="200" width="60" height="20" as="geometry" />
        </mxCell>
        <mxCell id="l713QnwxlMrZgbp7ZlIu-36" value="推送条形码到小程序" style="text;html=1;align=center;verticalAlign=middle;resizable=0;points=[];autosize=1;gradientColor=#97d077;fillColor=#d5e8d4;strokeColor=#82b366;opacity=60;" parent="1" vertex="1">
          <mxGeometry x="630" y="350" width="120" height="20" as="geometry" />
        </mxCell>
        <mxCell id="l713QnwxlMrZgbp7ZlIu-37" value="贴好条形码的样本管" style="text;html=1;align=center;verticalAlign=middle;resizable=0;points=[];autosize=1;gradientColor=#97d077;fillColor=#d5e8d4;strokeColor=#82b366;opacity=50;" parent="1" vertex="1">
          <mxGeometry x="420" y="342" width="120" height="20" as="geometry" />
        </mxCell>
        <mxCell id="l713QnwxlMrZgbp7ZlIu-38" value="到现场采样" style="text;html=1;align=center;verticalAlign=middle;resizable=0;points=[];autosize=1;" parent="1" vertex="1">
          <mxGeometry x="215" y="550" width="80" height="20" as="geometry" />
        </mxCell>
        <mxCell id="l713QnwxlMrZgbp7ZlIu-39" value="二维码" style="text;html=1;align=center;verticalAlign=middle;resizable=0;points=[];autosize=1;" parent="1" vertex="1">
          <mxGeometry x="265" y="342" width="50" height="20" as="geometry" />
        </mxCell>
        <mxCell id="l713QnwxlMrZgbp7ZlIu-40" value="注册录入客户信息" style="text;html=1;align=center;verticalAlign=middle;resizable=0;points=[];autosize=1;" parent="1" vertex="1">
          <mxGeometry x="105" y="420" width="110" height="20" as="geometry" />
        </mxCell>
        <mxCell id="l713QnwxlMrZgbp7ZlIu-41" value="&lt;font style=&quot;font-size: 17px ; background-color: rgb(179 , 179 , 179)&quot;&gt;上海流程&lt;/font&gt;" style="text;html=1;align=center;verticalAlign=middle;resizable=0;points=[];autosize=1;perimeterSpacing=8;" parent="1" vertex="1">
          <mxGeometry x="135" y="190" width="80" height="20" as="geometry" />
        </mxCell>
        <mxCell id="l713QnwxlMrZgbp7ZlIu-43" value="根据条形码获取客户信息" style="text;html=1;align=center;verticalAlign=middle;resizable=0;points=[];autosize=1;" parent="1" vertex="1">
          <mxGeometry x="210" y="260" width="150" height="20" as="geometry" />
        </mxCell>
        <mxCell id="l713QnwxlMrZgbp7ZlIu-45" value="推送结果" style="text;html=1;align=center;verticalAlign=middle;resizable=0;points=[];autosize=1;gradientColor=#97d077;fillColor=#d5e8d4;strokeColor=#82b366;" parent="1" vertex="1">
          <mxGeometry x="885" y="350" width="60" height="20" as="geometry" />
        </mxCell>
      </root>
    </mxGraphModel>
  </diagram>
</mxfile>
